<?xml version="1.0" standalone="no"?>
<!DOCTYPE svg PUBLIC "-//W3C//DTD SVG 20010904//EN"
 "http://www.w3.org/TR/2001/REC-SVG-20010904/DTD/svg10.dtd">
<svg version="1.0" xmlns="http://www.w3.org/2000/svg"
 width="778.000000pt" height="292.000000pt" viewBox="0 0 778.000000 292.000000"
 preserveAspectRatio="xMidYMid meet">

<g transform="translate(0.000000,292.000000) scale(0.100000,-0.100000)"
fill="#000000" stroke="none">
<path d="M2410 2891 c-197 -74 -386 -188 -540 -325 -38 -34 -109 -79 -191
-122 -72 -37 -144 -78 -159 -90 -51 -43 -96 -177 -124 -369 l-6 -40 17 40 c87
209 278 348 517 376 139 16 678 30 971 25 304 -6 303 -1 -5 34 -224 25 -650
41 -860 33 l-155 -6 36 44 c84 102 246 217 397 280 105 43 274 85 401 99 125
14 396 8 453 -9 21 -7 73 -35 115 -64 90 -60 191 -178 272 -317 27 -47 56 -92
63 -101 11 -11 60 -20 194 -32 376 -37 819 -100 1059 -152 198 -43 268 -65
379 -120 l110 -54 28 24 c28 23 45 29 129 40 91 12 494 -32 735 -80 23 -4 20
-1 -13 14 -120 56 -422 139 -688 190 -475 91 -1240 185 -1753 217 l-114 7 -36
60 c-48 78 -117 170 -209 280 -41 49 -73 90 -71 93 13 12 757 -96 865 -126 78
-21 223 -83 311 -132 119 -65 150 -84 252 -151 58 -39 96 -60 85 -47 -33 37
-184 153 -285 220 -188 123 -302 164 -670 242 l-195 42 -620 3 -620 3 -75 -29z"/>
<path d="M3193 2373 c9 -2 25 -2 35 0 9 3 1 5 -18 5 -19 0 -27 -2 -17 -5z"/>
<path d="M2455 2320 c-340 -9 -541 -26 -627 -51 -93 -27 -205 -105 -282 -195
-59 -68 -126 -177 -126 -203 0 -17 67 20 131 72 70 57 122 89 182 111 67 25
176 19 237 -13 126 -67 161 -81 225 -92 86 -15 1185 -15 1432 0 170 10 222 23
393 97 56 25 78 29 155 29 80 0 97 -4 155 -31 36 -17 113 -67 170 -110 233
-177 321 -204 657 -204 105 0 194 4 197 9 3 4 -34 13 -82 20 -186 25 -344 75
-432 134 -60 41 -169 145 -186 180 -8 15 -12 32 -8 38 9 15 82 5 224 -31 226
-57 334 -106 424 -193 59 -56 117 -106 144 -121 28 -17 -77 131 -137 193 -88
90 -125 106 -411 185 -170 46 -785 122 -1236 151 -199 13 -871 37 -914 33 -8
-1 -136 -4 -285 -8z"/>
<path d="M5474 2016 c-54 -24 -58 -71 -14 -165 41 -85 142 -189 223 -229 108
-53 198 -73 350 -79 132 -5 281 9 292 27 3 4 -14 3 -38 -2 -73 -18 -292 -15
-382 6 -122 28 -214 76 -275 144 -88 97 -127 220 -77 243 27 12 561 -14 635
-31 114 -27 166 -73 178 -160 14 -101 24 -117 20 -34 -2 46 -10 94 -19 110
-52 100 -173 140 -507 169 -216 18 -345 19 -386 1z"/>
<path d="M1748 1997 c-74 -21 -162 -90 -141 -111 3 -3 64 -6 134 -6 l128 0 41
-69 c22 -38 40 -75 40 -81 0 -6 -18 -43 -40 -81 l-41 -69 -135 0 c-122 0 -135
-2 -132 -17 5 -27 85 -81 145 -99 69 -20 128 -13 201 22 29 14 65 41 80 60
l27 34 945 0 946 0 52 -49 c59 -55 117 -77 202 -74 66 2 152 43 188 91 l25 32
-139 0 -139 0 -38 68 c-21 37 -39 74 -39 82 -1 8 18 48 41 88 l43 72 129 0
c72 0 129 4 129 9 0 19 -85 81 -133 97 -60 20 -146 15 -203 -12 -22 -10 -58
-38 -81 -61 l-41 -43 -941 0 -942 0 -30 35 c-64 72 -187 108 -281 82z"/>
<path d="M302 964 c-102 -27 -197 -105 -246 -202 -73 -144 -48 -333 60 -452
78 -86 186 -130 321 -130 110 0 113 5 113 180 0 177 -2 180 -121 180 -106 0
-139 -17 -139 -72 0 -37 42 -68 91 -68 39 0 39 0 39 -40 0 -40 0 -40 -37 -40
-85 0 -195 82 -224 166 -20 58 -16 151 8 204 47 102 130 150 260 150 72 0 85
3 103 22 26 29 26 72 -2 98 -18 17 -35 20 -97 19 -42 0 -100 -7 -129 -15z"/>
<path d="M3650 960 c-11 -11 -20 -31 -20 -44 0 -42 228 -707 247 -722 10 -7
25 -14 34 -14 44 -1 59 33 174 380 63 190 115 353 115 362 0 18 -45 58 -66 58
-39 0 -63 -47 -139 -278 -43 -129 -81 -230 -85 -225 -4 4 -42 113 -85 241 -78
235 -92 262 -137 262 -10 0 -27 -9 -38 -20z"/>
<path d="M4811 961 c-21 -21 -21 -29 -21 -381 0 -347 1 -361 20 -380 27 -27
56 -25 85 5 23 22 25 32 25 110 l0 85 73 0 c106 0 165 21 231 81 122 111 128
291 14 408 -70 71 -111 85 -270 89 -127 4 -137 3 -157 -17z m293 -135 c52 -22
81 -71 81 -136 0 -103 -59 -150 -189 -150 l-76 0 0 150 0 150 75 0 c42 0 91
-6 109 -14z"/>
<path d="M7449 959 c-20 -20 -20 -28 -17 -307 3 -322 3 -318 81 -400 90 -93
257 -98 257 -8 0 44 -20 58 -93 67 -106 13 -132 62 -125 239 l3 85 60 3 c66 3
85 17 85 63 0 39 -33 59 -97 59 l-53 0 0 93 c0 78 -3 97 -18 110 -25 23 -58
21 -83 -4z"/>
<path d="M820 761 c-75 -24 -138 -81 -168 -150 -21 -49 -21 -222 0 -271 22
-51 64 -97 115 -127 53 -31 142 -37 210 -14 39 13 45 13 63 -4 26 -24 69 -11
87 25 19 37 12 343 -9 390 -39 88 -120 147 -214 155 -32 2 -70 1 -84 -4z m151
-160 c38 -38 39 -40 39 -113 0 -41 -5 -89 -11 -106 -22 -64 -122 -93 -183 -53
-45 30 -55 57 -56 150 l0 83 39 39 c34 34 44 39 86 39 42 0 52 -5 86 -39z"/>
<path d="M1451 760 c-46 -11 -110 -58 -144 -106 -37 -52 -50 -140 -45 -306 3
-122 4 -131 27 -149 28 -23 50 -24 77 -5 17 13 19 31 24 196 l5 182 37 34 c32
29 45 34 87 34 60 0 94 23 94 65 0 56 -64 78 -162 55z"/>
<path d="M1860 761 c-69 -21 -128 -72 -167 -144 -25 -46 -25 -238 0 -284 66
-122 179 -174 301 -139 51 15 59 15 79 1 29 -20 53 -19 77 5 19 19 20 33 20
198 0 172 -1 180 -26 230 -14 29 -42 66 -62 82 -59 49 -156 71 -222 51z m120
-134 c47 -24 70 -73 70 -149 0 -81 -18 -126 -59 -151 -59 -35 -147 -14 -176
43 -20 39 -20 171 0 210 28 53 107 76 165 47z"/>
<path d="M2430 755 c-60 -19 -123 -74 -151 -133 -20 -40 -24 -63 -23 -147 0
-112 11 -148 64 -209 65 -73 172 -103 260 -72 60 21 59 21 51 -17 -18 -79 -64
-113 -140 -104 -36 4 -51 12 -74 39 -52 62 -61 69 -86 66 -13 -2 -33 -15 -43
-29 -24 -32 -17 -63 23 -113 l30 -36 164 0 163 0 35 41 c49 57 57 101 57 326
0 177 -3 203 -21 243 -55 123 -187 185 -309 145z m139 -128 c50 -25 63 -58 63
-150 0 -47 -6 -95 -12 -107 -18 -33 -70 -60 -119 -60 -37 0 -49 6 -83 40 l-40
40 3 89 c4 79 7 93 29 116 14 15 34 31 45 35 30 13 87 11 114 -3z"/>
<path d="M2991 759 c-74 -23 -142 -89 -161 -159 -5 -19 -10 -78 -10 -131 0
-82 3 -102 26 -147 14 -29 42 -66 62 -82 38 -31 115 -60 162 -60 92 0 210 78
210 138 0 32 -29 62 -61 62 -10 0 -36 -16 -59 -35 -32 -27 -51 -35 -81 -35
-47 0 -91 21 -113 52 -32 46 -26 48 132 48 194 0 196 1 190 114 -3 46 -11 94
-20 111 -21 40 -71 91 -107 109 -38 20 -127 28 -170 15z m140 -148 c16 -16 29
-39 29 -50 0 -20 -5 -21 -105 -21 -94 0 -105 2 -105 18 0 24 28 62 54 72 46
19 96 11 127 -19z"/>
<path d="M5553 756 c-61 -20 -118 -69 -147 -128 -23 -46 -26 -64 -26 -153 0
-89 3 -107 26 -153 32 -64 83 -108 148 -127 63 -19 94 -19 153 1 43 15 49 15
74 0 37 -22 52 -20 78 8 22 23 23 29 19 203 -3 195 -8 214 -72 281 -64 69
-167 96 -253 68z m136 -130 c49 -26 63 -59 63 -153 0 -95 -12 -122 -64 -149
-39 -20 -110 -14 -140 12 -53 47 -67 183 -25 245 39 57 106 76 166 45z"/>
<path d="M6183 756 c-61 -19 -118 -69 -147 -128 -25 -50 -26 -59 -26 -230 0
-165 1 -179 20 -198 11 -11 29 -20 40 -20 11 0 29 9 40 20 18 18 20 33 20 175
0 217 19 255 130 263 61 4 82 17 94 59 5 17 1 29 -18 48 -29 29 -83 33 -153
11z"/>
<path d="M6650 761 c-69 -21 -130 -73 -166 -141 -16 -29 -20 -63 -22 -212 l-4
-177 26 -26 c31 -31 50 -32 81 0 24 24 25 27 25 185 0 178 7 208 60 235 16 8
49 15 75 15 52 0 85 25 85 65 0 41 -33 65 -87 64 -27 0 -59 -4 -73 -8z"/>
<path d="M7038 754 c-57 -17 -138 -101 -156 -161 -7 -22 -12 -75 -12 -118 0
-105 15 -148 73 -211 50 -55 112 -84 177 -84 56 0 126 30 169 71 69 68 76 88
76 224 0 107 -2 124 -23 160 -13 22 -43 56 -68 75 -73 58 -146 72 -236 44z
m167 -144 c63 -59 60 -217 -5 -275 -34 -31 -130 -28 -164 4 -34 32 -50 92 -43
165 9 96 55 140 140 133 32 -3 56 -12 72 -27z"/>
<path d="M4283 360 c-36 -14 -56 -55 -50 -97 9 -52 38 -78 88 -78 83 0 120 96
60 156 -30 29 -58 35 -98 19z"/>
</g>
</svg>
