<?xml version="1.0" standalone="no"?>
<!DOCTYPE svg PUBLIC "-//W3C//DTD SVG 20010904//EN"
 "http://www.w3.org/TR/2001/REC-SVG-20010904/DTD/svg10.dtd">
<svg version="1.0" xmlns="http://www.w3.org/2000/svg"
 width="200.000000pt" height="75.000000pt" viewBox="0 0 200.000000 75.000000"
 preserveAspectRatio="xMidYMid meet">

<g transform="translate(0.000000,75.000000) scale(0.100000,-0.100000)"
fill="#000000" stroke="none">
<path d="M585 726 c-27 -13 -68 -38 -90 -56 -22 -17 -57 -40 -77 -51 -20 -10
-39 -27 -41 -36 -3 -10 -9 -29 -12 -43 -7 -25 -7 -24 15 4 44 54 88 66 254 66
82 0 147 3 144 6 -4 3 -71 8 -149 12 l-144 7 25 24 c14 13 50 35 80 50 47 22
68 26 148 26 l93 0 32 -36 c18 -19 41 -47 52 -62 19 -26 29 -29 145 -43 139
-17 252 -40 291 -59 16 -9 30 -10 40 -4 13 8 107 5 169 -7 55 -10 -7 14 -75
29 -129 29 -406 67 -491 67 -39 0 -45 4 -84 56 -23 30 -40 57 -38 59 1 2 50
-4 108 -11 80 -11 121 -23 173 -49 38 -19 64 -28 58 -21 -21 25 -117 65 -193
80 -50 11 -131 16 -230 16 -140 0 -157 -2 -203 -24z"/>
<path d="M545 590 c-89 -7 -111 -16 -149 -61 -37 -44 -32 -54 11 -24 43 29 78
32 119 10 23 -12 71 -15 232 -15 174 0 210 3 257 19 64 23 85 19 147 -26 26
-19 64 -36 85 -39 21 -3 51 -7 66 -9 41 -7 24 11 -18 19 -37 7 -109 62 -100
76 10 16 135 -27 166 -56 16 -15 29 -23 29 -17 0 18 -58 62 -98 73 -72 20
-239 41 -407 50 -183 10 -217 10 -340 0z"/>
<path d="M1400 497 c0 -23 53 -87 72 -87 6 0 -4 13 -22 30 -18 17 -30 37 -28
47 3 16 13 18 83 15 44 -2 94 -10 110 -18 27 -13 28 -13 15 0 -19 19 -103 36
-176 36 -50 0 -54 -2 -54 -23z"/>
<path d="M425 500 c-4 -6 6 -10 24 -10 39 0 58 -31 42 -66 -8 -18 -19 -24 -43
-24 -24 0 -29 -3 -20 -12 17 -17 69 -14 90 5 16 15 49 17 259 17 193 0 243 -3
252 -14 17 -20 43 -25 71 -13 l25 10 -29 6 c-16 3 -35 15 -42 26 -12 18 -11
24 2 43 9 13 26 22 40 22 14 0 22 4 19 10 -10 15 -71 12 -85 -5 -18 -22 -485
-22 -514 0 -22 17 -82 20 -91 5z"/>
<path d="M47 230 c-33 -26 -51 -79 -38 -112 14 -37 58 -68 98 -68 34 0 34 0
31 43 -3 38 -6 42 -30 45 -32 4 -39 -21 -11 -37 10 -5 14 -13 10 -17 -5 -5
-20 -2 -35 7 -20 11 -28 24 -30 51 -4 46 24 78 68 78 20 0 30 5 30 15 0 22
-62 19 -93 -5z"/>
<path d="M938 244 c-10 -9 56 -194 68 -194 14 0 77 178 68 191 -12 20 -24 5
-45 -58 l-22 -67 -14 40 c-8 21 -20 51 -25 67 -10 26 -19 33 -30 21z"/>
<path d="M1234 237 c-10 -28 1 -180 14 -185 7 -2 12 6 12 21 0 20 6 26 35 31
69 13 94 86 43 129 -24 20 -96 23 -104 4z m90 -39 c21 -30 4 -58 -34 -58 -27
0 -30 3 -30 33 0 19 3 37 7 40 13 14 42 6 57 -15z"/>
<path d="M1917 243 c-4 -3 -7 -38 -7 -77 0 -84 17 -119 56 -114 30 4 33 22 4
26 -32 5 -43 87 -11 87 8 0 16 6 19 13 2 7 -5 12 -17 12 -17 0 -21 6 -21 30 0
29 -9 38 -23 23z"/>
<path d="M202 190 c-26 -11 -45 -55 -38 -86 10 -38 34 -54 82 -54 l44 0 0 54
c0 47 -4 57 -26 75 -30 23 -30 23 -62 11z m46 -32 c18 -18 15 -68 -4 -75 -39
-15 -69 40 -39 71 20 19 27 20 43 4z"/>
<path d="M370 193 c-28 -10 -40 -37 -40 -91 0 -69 23 -67 30 4 4 39 10 51 28
59 34 15 18 41 -18 28z"/>
<path d="M455 175 c-31 -30 -33 -77 -5 -105 16 -16 31 -20 63 -18 l42 3 3 47
c3 40 -1 52 -22 73 -31 31 -50 32 -81 0z m56 -15 c38 -21 14 -86 -28 -78 -22
4 -30 53 -12 74 14 17 15 17 40 4z"/>
<path d="M607 179 c-53 -41 -26 -129 38 -129 26 0 33 -3 29 -15 -7 -18 -45
-20 -62 -3 -15 15 -26 4 -19 -17 5 -10 20 -15 51 -15 55 0 66 15 66 93 0 86
-51 128 -103 86z m54 -19 c38 -21 14 -86 -28 -78 -22 4 -30 53 -12 74 14 17
15 17 40 4z"/>
<path d="M752 184 c-29 -20 -31 -93 -4 -117 23 -21 65 -22 82 -2 17 21 4 37
-19 23 -10 -6 -26 -8 -35 -5 -30 12 -17 26 27 29 38 3 42 5 39 28 -3 26 -35
60 -56 60 -6 0 -22 -7 -34 -16z m58 -35 c0 -5 -11 -9 -25 -9 -26 0 -34 15 -12
23 16 5 37 -3 37 -14z"/>
<path d="M1422 190 c-44 -18 -53 -108 -13 -129 10 -6 36 -10 59 -9 l42 0 0 53
c0 46 -4 57 -26 74 -30 23 -30 23 -62 11z m46 -32 c18 -18 15 -68 -4 -75 -39
-15 -69 40 -39 71 20 19 27 20 43 4z"/>
<path d="M1580 187 c-22 -11 -25 -20 -28 -76 -2 -48 0 -62 10 -59 8 3 13 22
13 52 0 46 13 65 43 66 15 0 12 22 -4 27 -5 1 -20 -3 -34 -10z"/>
<path d="M1703 190 c-31 -12 -45 -44 -41 -92 5 -63 28 -62 28 2 0 48 2 52 30
63 17 6 29 16 27 21 -5 14 -19 16 -44 6z"/>
<path d="M1810 193 c-42 -15 -56 -96 -22 -126 43 -40 102 -8 102 54 0 53 -38
87 -80 72z m38 -32 c8 -5 12 -22 10 -42 -2 -29 -7 -34 -28 -34 -20 0 -26 6
-28 28 -2 16 2 35 9 43 13 16 19 17 37 5z"/>
<path d="M1092 73 c5 -26 38 -29 38 -4 0 15 -6 21 -21 21 -14 0 -19 -5 -17
-17z"/>
</g>
</svg>
